<svg xmlns="http://www.w3.org/2000/svg" viewBox="0 0 1024 400"><defs><style>.cls-1{fill:#fff;}</style></defs><title>Asset 1</title><g id="Layer_2" data-name="Layer 2"><g id="Layer_1-2" data-name="Layer 1"><path class="cls-1" d="M632.76,0H590.29a9.44,9.44,0,0,0-5.83,2L322.21,208.09a9.4,9.4,0,0,1-11.66,0L48.3,2a9.45,9.45,0,0,0-5.84-2H9.52A9.58,9.58,0,0,0,0,9.65v8a9.71,9.71,0,0,0,3.73,7.66L310.59,263.53a9.43,9.43,0,0,0,11.58,0L603.38,45.22a9.44,9.44,0,0,1,5.79-2H967a9.59,9.59,0,0,1,9.52,9.65v294.6a9.59,9.59,0,0,1-9.52,9.65H615.46a9.58,9.58,0,0,0-9.52,9.65v23.57a9.58,9.58,0,0,0,9.52,9.65h399a9.58,9.58,0,0,0,9.52-9.65V9.65A9.58,9.58,0,0,0,1014.48,0Z"/></g></g></svg>